<svg width="418" height="316" viewBox="0 0 418 316" fill="none" xmlns="http://www.w3.org/2000/svg">
<mask id="mask0_286_44" style="mask-type:alpha" maskUnits="userSpaceOnUse" x="0" y="0" width="418" height="316">
<rect width="418" height="315.472" fill="white"/>
</mask>
<g mask="url(#mask0_286_44)">
<path d="M400.729 176.348L374.182 140.58L398.438 108.108H389.328L369.599 134.6L349.871 108.108H340.817L365.017 140.636L338.525 176.404H347.635L369.599 146.783L391.619 176.404H400.729" fill="#107C10"/>
<path d="M219.874 176.348L193.383 140.58L217.582 108.108H208.528L188.8 134.6L169.071 108.108H159.961L184.217 140.636L157.67 176.404H166.78L188.8 146.783L210.764 176.404H219.874" fill="#107C10"/>
<path d="M251.674 169.195H231.386V144.38H251.674C259.386 144.38 268.552 146.448 268.552 156.229C268.552 167.518 257.933 169.195 251.674 169.195ZM231.386 115.206H251.674C257.151 115.206 266.372 116.548 266.372 126.049C266.372 133.202 261.007 137.506 251.674 137.506H231.386V115.206ZM270.285 143.151C268.831 141.921 267.322 140.971 265.758 140.3C270.732 137.618 274.029 132.532 274.029 126.663C274.029 122.304 272.408 108.108 251.618 108.108H223.618V137.562H214.284C213.055 139.127 210.316 142.871 209.254 144.38H223.618V176.348H251.618C266.819 176.348 276.265 168.692 276.265 156.396C276.321 151.031 274.253 146.448 270.285 143.151Z" fill="#107C10"/>
<path d="M312.704 170.647C297.894 170.647 287.555 158.967 287.555 142.2C287.555 125.433 297.894 113.753 312.704 113.753C327.459 113.753 337.743 125.433 337.743 142.2C337.743 158.911 327.459 170.647 312.704 170.647ZM312.704 106.543C293.255 106.543 279.73 121.186 279.73 142.2C279.73 163.214 293.255 177.857 312.704 177.857C332.042 177.857 345.567 163.214 345.567 142.2C345.567 121.186 332.042 106.543 312.704 106.543Z" fill="#107C10"/>
<path d="M68.0372 198.264C59.1009 197.411 50.0485 194.196 42.2616 189.108C35.7402 184.846 34.268 183.103 34.268 179.604C34.268 172.591 41.9775 160.298 55.1494 146.299C62.6393 138.344 73.0606 129.021 74.1841 129.266C76.3794 129.757 93.9032 146.88 100.463 154.926C110.846 167.684 115.624 178.118 113.196 182.767C111.349 186.306 99.9209 193.214 91.5271 195.862C84.6054 198.057 75.5142 198.987 68.0372 198.264ZM25.4739 172.32C20.063 164.004 17.3254 155.804 15.9952 143.962C15.5562 140.049 15.7111 137.815 16.9896 129.783C18.578 119.775 24.26 108.204 31.1042 101.076C34.0227 98.041 34.2809 97.9635 37.8322 99.1645C42.1454 100.624 46.7426 103.8 53.8838 110.27L58.0549 114.041L55.7821 116.843C45.2059 129.834 34.0614 148.249 29.8645 159.639C27.5788 165.825 26.6619 172.049 27.6433 174.632C28.3019 176.375 27.695 175.729 25.4739 172.32ZM120.518 173.728C121.048 171.119 120.376 166.315 118.788 161.473C115.366 150.987 103.885 131.461 93.3479 118.199L90.0291 114.028L93.6191 110.722C98.3067 106.409 101.561 103.826 105.073 101.644C107.85 99.9135 111.801 98.3897 113.506 98.3897C114.552 98.3897 118.245 102.225 121.228 106.422C125.852 112.905 129.248 120.782 130.965 128.969C132.076 134.264 132.166 145.589 131.146 150.858C130.307 155.184 128.525 160.801 126.794 164.624C125.49 167.478 122.262 173.018 120.841 174.825C120.118 175.729 120.118 175.729 120.518 173.728ZM68.9928 96.401C64.1244 93.9216 56.6215 91.2743 52.4763 90.5511C51.017 90.3057 48.5505 90.1637 46.9621 90.2412C43.54 90.409 43.695 90.2412 49.1833 87.6455C53.7418 85.489 57.5513 84.2234 62.7168 83.1387C68.5279 81.9119 79.4399 81.899 85.1607 83.1128C91.3334 84.4171 98.6037 87.129 102.697 89.6471L103.911 90.3961L101.122 90.2541C95.569 89.97 87.4851 92.217 78.7942 96.4526C76.1728 97.7311 73.9 98.7513 73.7321 98.7125C73.5771 98.6867 71.4335 97.6407 68.9928 96.401Z" fill="#107C10"/>
</g>
</svg>
