<svg width="1090" height="220" viewBox="0 0 1090 220" fill="none" xmlns="http://www.w3.org/2000/svg">
<path d="M543.232 214.768C544.209 215.744 545.791 215.744 546.768 214.768L562.678 198.858C563.654 197.882 563.654 196.299 562.678 195.322C561.701 194.346 560.118 194.346 559.142 195.322L545 209.464L530.858 195.322C529.882 194.346 528.299 194.346 527.322 195.322C526.346 196.299 526.346 197.882 527.322 198.858L543.232 214.768ZM542.5 0.5V213H547.5V0.5H542.5Z" fill="#0075FF"/>
<path d="M18.5 104V101.5H16V104H18.5ZM16.7322 218.768C17.7085 219.744 19.2915 219.744 20.2678 218.768L36.1777 202.858C37.154 201.882 37.154 200.299 36.1777 199.322C35.2014 198.346 33.6184 198.346 32.6421 199.322L18.5 213.464L4.35786 199.322C3.38155 198.346 1.79864 198.346 0.82233 199.322C-0.15398 200.299 -0.15398 201.882 0.82233 202.858L16.7322 218.768ZM544.5 101.5H18.5V106.5H544.5V101.5ZM16 104V217H21V104H16Z" fill="#0075FF"/>
<path d="M1071 104V101.5H1073.5V104H1071ZM1072.77 218.768C1071.79 219.744 1070.21 219.744 1069.23 218.768L1053.32 202.858C1052.35 201.882 1052.35 200.299 1053.32 199.322C1054.3 198.346 1055.88 198.346 1056.86 199.322L1071 213.464L1085.14 199.322C1086.12 198.346 1087.7 198.346 1088.68 199.322C1089.65 200.299 1089.65 201.882 1088.68 202.858L1072.77 218.768ZM545 101.5H1071V106.5H545V101.5ZM1073.5 104V217H1068.5V104H1073.5Z" fill="#0075FF"/>
<circle cx="544.5" cy="101.5" r="18" fill="#D9D9D9" stroke="#0075FF"/>
<circle cx="544.5" cy="101.5" r="12.5" fill="#0075FF"/>
<circle cx="1068.5" cy="104.5" r="18" fill="#D9D9D9" stroke="#0075FF"/>
<circle cx="1068.5" cy="104.5" r="12.5" fill="#0075FF"/>
<circle cx="18.5" cy="107.5" r="18" fill="#D9D9D9" stroke="#0075FF"/>
<circle cx="18.5" cy="107.5" r="12.5" fill="#0075FF"/>
</svg>
